<svg width="1440" height="155" viewBox="0 0 1440 155" fill="none" xmlns="http://www.w3.org/2000/svg">
<g filter="url(#filter0_d_7_3)">
<path d="M32.7273 137C0 137 0 104 0 104H65.4546H130.909H196.364H261.818H327.273H392.727H458.182H523.636H589.091H654.545H720H785.455H850.909H916.364H981.818H1047.27H1112.73H1178.18H1243.64H1309.09H1374.55H1440C1440 104 1440 137 1407.27 137C1374.55 137 1374.55 104 1374.55 104C1374.55 104 1374.55 137 1341.82 137C1309.09 137 1309.09 104 1309.09 104C1309.09 104 1309.09 137 1276.36 137C1243.64 137 1243.64 104 1243.64 104C1243.64 104 1243.64 137 1210.91 137C1178.18 137 1178.18 104 1178.18 104C1178.18 104 1178.18 137 1145.45 137C1112.73 137 1112.73 104 1112.73 104C1112.73 104 1112.73 137 1080 137C1047.27 137 1047.27 104 1047.27 104C1047.27 104 1047.27 137 1014.55 137C981.818 137 981.818 104 981.818 104C981.818 104 981.818 137 949.091 137C916.364 137 916.364 104 916.364 104C916.364 104 916.364 137 883.636 137C850.909 137 850.909 104 850.909 104C850.909 104 850.909 137 818.182 137C785.455 137 785.455 104 785.455 104C785.455 104 785.455 137 752.727 137C720 137 720 104 720 104C720 104 720 137 687.273 137C654.545 137 654.545 104 654.545 104C654.545 104 654.545 137 621.818 137C589.091 137 589.091 104 589.091 104C589.091 104 589.091 137 556.364 137C523.636 137 523.636 104 523.636 104C523.636 104 523.636 137 490.909 137C458.182 137 458.182 104 458.182 104C458.182 104 458.182 137 425.455 137C392.727 137 392.727 104 392.727 104C392.727 104 392.727 137 360 137C327.273 137 327.273 104 327.273 104C327.273 104 327.273 137 294.545 137C261.818 137 261.818 104 261.818 104C261.818 104 261.818 137 229.091 137C196.364 137 196.364 104 196.364 104C196.364 104 196.364 137 163.636 137C130.909 137 130.909 104 130.909 104C130.909 104 130.909 137 98.1818 137C65.4546 137 65.4546 104 65.4546 104C65.4546 104 65.4546 137 32.7273 137Z" fill="#FFC5F4"/>
<path d="M0 99H-5V104H0C-5 104 -5 104.003 -5 104.005L-4.99999 104.011L-4.99995 104.026L-4.99972 104.063C-4.99949 104.092 -4.99908 104.13 -4.99836 104.175C-4.99692 104.265 -4.99424 104.386 -4.98928 104.536C-4.97936 104.836 -4.96027 105.253 -4.92358 105.771C-4.85032 106.805 -4.70618 108.251 -4.4217 109.972C-3.85669 113.39 -2.71731 118.025 -0.388606 122.721C1.94935 127.436 5.53687 132.309 11.0174 135.993C16.5312 139.7 23.662 142 32.7273 142C41.7926 142 48.9233 139.7 54.4372 135.993C59.6226 132.508 63.1134 127.957 65.4546 123.484C67.7957 127.957 71.2865 132.508 76.4719 135.993C81.9858 139.7 89.1165 142 98.1818 142C107.247 142 114.378 139.7 119.892 135.993C125.077 132.508 128.568 127.957 130.909 123.484C133.25 127.957 136.741 132.508 141.926 135.993C147.44 139.7 154.571 142 163.636 142C172.702 142 179.832 139.7 185.346 135.993C190.532 132.508 194.022 127.957 196.364 123.484C198.705 127.957 202.196 132.508 207.381 135.993C212.895 139.7 220.026 142 229.091 142C238.156 142 245.287 139.7 250.801 135.993C255.986 132.508 259.477 127.957 261.818 123.484C264.159 127.957 267.65 132.508 272.836 135.993C278.349 139.7 285.48 142 294.545 142C303.611 142 310.742 139.7 316.255 135.993C321.441 132.508 324.932 127.957 327.273 123.484C329.614 127.957 333.105 132.508 338.29 135.993C343.804 139.7 350.935 142 360 142C369.065 142 376.196 139.7 381.71 135.993C386.895 132.508 390.386 127.957 392.727 123.484C395.068 127.957 398.559 132.508 403.745 135.993C409.259 139.7 416.389 142 425.455 142C434.52 142 441.651 139.7 447.164 135.993C452.35 132.508 455.841 127.957 458.182 123.484C460.523 127.957 464.014 132.508 469.199 135.993C474.713 139.7 481.844 142 490.909 142C499.974 142 507.105 139.7 512.619 135.993C517.804 132.508 521.295 127.957 523.636 123.484C525.978 127.957 529.468 132.508 534.654 135.993C540.168 139.7 547.298 142 556.364 142C565.429 142 572.56 139.7 578.074 135.993C583.259 132.508 586.75 127.957 589.091 123.484C591.432 127.957 594.923 132.508 600.108 135.993C605.622 139.7 612.753 142 621.818 142C630.884 142 638.014 139.7 643.528 135.993C648.714 132.508 652.204 127.957 654.545 123.484C656.887 127.957 660.377 132.508 665.563 135.993C671.077 139.7 678.207 142 687.273 142C696.338 142 703.469 139.7 708.983 135.993C714.168 132.508 717.659 127.957 720 123.484C722.341 127.957 725.832 132.508 731.017 135.993C736.531 139.7 743.662 142 752.727 142C761.793 142 768.923 139.7 774.437 135.993C779.623 132.508 783.113 127.957 785.455 123.484C787.796 127.957 791.287 132.508 796.472 135.993C801.986 139.7 809.117 142 818.182 142C827.247 142 834.378 139.7 839.892 135.993C845.077 132.508 848.568 127.957 850.909 123.484C853.25 127.957 856.741 132.508 861.927 135.993C867.44 139.7 874.571 142 883.636 142C892.702 142 899.832 139.7 905.346 135.993C910.532 132.508 914.023 127.957 916.364 123.484C918.705 127.957 922.196 132.508 927.381 135.993C932.895 139.7 940.026 142 949.091 142C958.156 142 965.287 139.7 970.801 135.993C975.986 132.508 979.477 127.957 981.818 123.484C984.159 127.957 987.65 132.508 992.836 135.993C998.349 139.7 1005.48 142 1014.55 142C1023.61 142 1030.74 139.7 1036.26 135.993C1041.44 132.508 1044.93 127.957 1047.27 123.484C1049.61 127.957 1053.1 132.508 1058.29 135.993C1063.8 139.7 1070.93 142 1080 142C1089.07 142 1096.2 139.7 1101.71 135.993C1106.9 132.508 1110.39 127.957 1112.73 123.484C1115.07 127.957 1118.56 132.508 1123.74 135.993C1129.26 139.7 1136.39 142 1145.45 142C1154.52 142 1161.65 139.7 1167.16 135.993C1172.35 132.508 1175.84 127.957 1178.18 123.484C1180.52 127.957 1184.01 132.508 1189.2 135.993C1194.71 139.7 1201.84 142 1210.91 142C1219.97 142 1227.11 139.7 1232.62 135.993C1237.8 132.508 1241.3 127.957 1243.64 123.484C1245.98 127.957 1249.47 132.508 1254.65 135.993C1260.17 139.7 1267.3 142 1276.36 142C1285.43 142 1292.56 139.7 1298.07 135.993C1303.26 132.508 1306.75 127.957 1309.09 123.484C1311.43 127.957 1314.92 132.508 1320.11 135.993C1325.62 139.7 1332.75 142 1341.82 142C1350.88 142 1358.01 139.7 1363.53 135.993C1368.71 132.508 1372.2 127.957 1374.55 123.484C1376.89 127.957 1380.38 132.508 1385.56 135.993C1391.08 139.7 1398.21 142 1407.27 142C1416.34 142 1423.47 139.7 1428.98 135.993C1434.46 132.309 1438.05 127.436 1440.39 122.721C1442.72 118.025 1443.86 113.39 1444.42 109.972C1444.71 108.251 1444.85 106.805 1444.92 105.771C1444.96 105.253 1444.98 104.836 1444.99 104.536C1444.99 104.386 1445 104.265 1445 104.175L1445 104.063L1445 104.026V104.011V104.005C1445 104.003 1445 104 1440 104H1445V99H1440H1374.55H1309.09H1243.64H1178.18H1112.73H1047.27H981.818H916.364H850.909H785.455H720H654.545H589.091H523.636H458.182H392.727H327.273H261.818H196.364H130.909H65.4546H0Z" stroke="white" stroke-width="10"/>
</g>
<rect width="1440" height="104" fill="#FFC5F4"/>
<defs>
<filter id="filter0_d_7_3" x="-14" y="94" width="1468" height="61" filterUnits="userSpaceOnUse" color-interpolation-filters="sRGB">
<feFlood flood-opacity="0" result="BackgroundImageFix"/>
<feColorMatrix in="SourceAlpha" type="matrix" values="0 0 0 0 0 0 0 0 0 0 0 0 0 0 0 0 0 0 127 0" result="hardAlpha"/>
<feOffset dy="4"/>
<feGaussianBlur stdDeviation="2"/>
<feComposite in2="hardAlpha" operator="out"/>
<feColorMatrix type="matrix" values="0 0 0 0 0 0 0 0 0 0 0 0 0 0 0 0 0 0 0.25 0"/>
<feBlend mode="normal" in2="BackgroundImageFix" result="effect1_dropShadow_7_3"/>
<feBlend mode="normal" in="SourceGraphic" in2="effect1_dropShadow_7_3" result="shape"/>
</filter>
</defs>
</svg>
